<?xml version="1.0" encoding="utf-8"?>
<!-- Generator: Adobe Illustrator 23.0.5, SVG Export Plug-In . SVG Version: 6.00 Build 0)  -->
<svg version="1.1" id="Layer_1" xmlns="http://www.w3.org/2000/svg" xmlns:xlink="http://www.w3.org/1999/xlink" x="0px" y="0px"
	 viewBox="0 0 1000 170" style="enable-background:new 0 0 1000 170;" xml:space="preserve">
<g>
	<path d="M119,148c-11.7,6.5-25.4,10.2-39.9,10.2C36.2,158.2,0,126.3,0,79.1S36.2,0,79.1,0c42.9,0,79.3,31.9,79.3,79.1
		c0,20.8-7.2,38.8-18.6,52.2l19.3,24.7h-33.8L119,148z M79.1,130c7.8,0,15.4-1.7,21.9-5L72.4,88.2h33.8l14.5,18.6
		c4.6-7.8,7.2-17.1,7.2-27.7c0-31-22.3-50.9-48.8-50.9c-26.2,0-48.8,19.9-48.8,50.9S52.9,130,79.1,130z"/>
	<path d="M281.4,156h-29v-15.4c-6.3,10-17.6,17.6-34.5,17.6c-23.2,0-42.7-14.3-42.7-48.5V43.3h29v61.5c0,16.5,8.9,27.3,24.1,27.3
		c15,0,24.1-10.8,24.1-27.3V43.3h29V156z"/>
	<path d="M293.6,99.7c0-38.1,29.9-58.5,59.4-58.5c29.3,0,59.4,20.4,59.4,58.5s-30.1,58.5-59.4,58.5
		C323.5,158.2,293.6,137.8,293.6,99.7z M353,132c16.3,0,30.6-12.1,30.6-32.3S369.3,67.4,353,67.4c-16.3,0-30.8,12.1-30.8,32.3
		S336.8,132,353,132z"/>
	<path d="M430.1,124.8V66.5h-16V43.3h16V14.5h29.3v28.8h23.2v23.2h-23.2V120c0,5.9,3.3,11.5,12.8,11.5c2.6,0,6.5-0.4,10.6-1.7v22.3
		c-4.3,3.9-12.6,5.2-19.7,5.2C444,157.3,430.1,148,430.1,124.8z"/>
	<path d="M486.3,99.7c0-37.9,28.2-58.5,57-58.5c28.6,0,61.1,20.2,54.8,69.8h-84.3c4.1,15.4,17.6,23.4,34.5,23.4
		c11.1,0,20.8-3,29-10.2l13.2,14.1c-9.3,11.7-25.6,19.9-45.5,19.9C514,158.2,486.3,137.2,486.3,99.7z M572.3,89.7
		c-1.7-16-15.2-24.1-28.8-24.1c-13.4,0-26.4,7.8-30.1,24.1H572.3z"/>
	<path d="M705.8,93h-63.3V156h-29.7V2.2h29.7v63.5h63.3V2.2h29.7V156h-29.7V93z"/>
	<path d="M862.1,156h-29v-15.4c-6.3,10-17.6,17.6-34.5,17.6c-23.2,0-42.7-14.3-42.7-48.5V43.3h29v61.5c0,16.5,8.9,27.3,24.1,27.3
		c15,0,24.1-10.8,24.1-27.3V43.3h29V156z"/>
	<path d="M909.2,2.2v56.3h0.6c2.8-6.3,15.8-17.3,36-17.3c26.2,0,54.2,19.5,54.2,58.5s-28,58.5-54.2,58.5c-20.2,0-33.2-11.1-36-17.3
		h-0.6V156h-29V2.2H909.2z M940,132.2c16.3,0,31.4-11.5,31.4-32.5S956.2,67.2,940,67.2s-31.4,11.3-31.4,32.5S923.7,132.2,940,132.2z
		"/>
</g>
</svg>
