<?xml version="1.0" encoding="utf-8"?>
<!-- Generator: Adobe Illustrator 23.0.5, SVG Export Plug-In . SVG Version: 6.00 Build 0)  -->
<svg version="1.1" id="Layer_1" xmlns="http://www.w3.org/2000/svg" xmlns:xlink="http://www.w3.org/1999/xlink" x="0px" y="0px"
	 viewBox="0 0 1000 600" style="enable-background:new 0 0 1000 600;" xml:space="preserve">
<g>
	<path d="M435.1,300c0,40.3-9.9,75.6-27.2,105.2l-55.1-70.7H224.7l108.5,139.7c-24.7,12.3-53.4,18.9-83.1,18.9
		c-99.4,0-184.9-75.6-184.9-193.2s85.5-193.2,184.9-193.2C350.4,106.8,435.1,182.5,435.1,300z"/>
	<path d="M401.4,561.4l30.1,38.6H250.1C305.2,600,357,586,401.4,561.4z"/>
	<path d="M970.5,0v600H854.7V354.1H607.9V600h-47.5l-80.1-101.9C523.9,447.1,551,378.9,551,300C551,120.8,412.9,0,250.1,0h357.7
		v247.6h246.8V0H970.5z"/>
</g>
</svg>
